<svg width="15" height="15" viewBox="0 0 15 15" fill="none" xmlns="http://www.w3.org/2000/svg">
<path d="M13.3279 2.09458L9.92491 2.09459V1.24737C9.92491 1.0125 9.73472 0.822266 9.49991 0.822266C9.26509 0.822266 9.07491 1.0125 9.07491 1.24737V2.09438H5.67491V1.24737C5.67491 1.0125 5.48472 0.822266 5.24991 0.822266C5.01509 0.822266 4.82491 1.0125 4.82491 1.24737V2.09438H1.42788C0.958468 2.09438 0.577881 2.47505 0.577881 2.94458V13.5721C0.577881 14.0416 0.958468 14.4223 1.42788 14.4223H13.3279C13.7973 14.4223 14.1779 14.0416 14.1779 13.5721V2.94458C14.1779 2.47525 13.7973 2.09458 13.3279 2.09458ZM13.3279 13.5721H1.42788V2.94458H4.82491V3.37286C4.82491 3.60772 5.01509 3.79796 5.24991 3.79796C5.48472 3.79796 5.67491 3.60772 5.67491 3.37286V2.94479H9.07491V3.37308C9.07491 3.60794 9.26509 3.79818 9.49991 3.79818C9.73472 3.79818 9.92491 3.60794 9.92491 3.37308V2.94479H13.3279V13.5721ZM10.3529 7.62087H11.2029C11.4375 7.62087 11.6279 7.43043 11.6279 7.19577V6.34557C11.6279 6.11092 11.4375 5.92047 11.2029 5.92047H10.3529C10.1183 5.92047 9.92788 6.11092 9.92788 6.34557V7.19577C9.92788 7.43043 10.1183 7.62087 10.3529 7.62087ZM10.3529 11.0215H11.2029C11.4375 11.0215 11.6279 10.8312 11.6279 10.5964V9.74616C11.6279 9.5115 11.4375 9.32106 11.2029 9.32106H10.3529C10.1183 9.32106 9.92788 9.5115 9.92788 9.74616V10.5964C9.92788 10.8314 10.1183 11.0215 10.3529 11.0215ZM7.80288 9.32106H6.95288C6.71828 9.32106 6.52788 9.5115 6.52788 9.74616V10.5964C6.52788 10.8312 6.71828 11.0215 6.95288 11.0215H7.80288C8.03748 11.0215 8.22788 10.8312 8.22788 10.5964V9.74616C8.22788 9.51171 8.03748 9.32106 7.80288 9.32106ZM7.80288 5.92047H6.95288C6.71828 5.92047 6.52788 6.11092 6.52788 6.34557V7.19577C6.52788 7.43043 6.71828 7.62087 6.95288 7.62087H7.80288C8.03748 7.62087 8.22788 7.43043 8.22788 7.19577V6.34557C8.22788 6.1107 8.03748 5.92047 7.80288 5.92047ZM4.40288 5.92047H3.55288C3.31828 5.92047 3.12788 6.11092 3.12788 6.34557V7.19577C3.12788 7.43043 3.31828 7.62087 3.55288 7.62087H4.40288C4.63748 7.62087 4.82788 7.43043 4.82788 7.19577V6.34557C4.82788 6.1107 4.63748 5.92047 4.40288 5.92047ZM4.40288 9.32106H3.55288C3.31828 9.32106 3.12788 9.5115 3.12788 9.74616V10.5964C3.12788 10.8312 3.31828 11.0215 3.55288 11.0215H4.40288C4.63748 11.0215 4.82788 10.8312 4.82788 10.5964V9.74616C4.82788 9.51171 4.63748 9.32106 4.40288 9.32106Z" fill="#F8F8FB"/>
</svg>
