<svg width="165" height="25" viewBox="0 0 165 25" fill="none" xmlns="http://www.w3.org/2000/svg">
<path d="M8.18182 24H0.295455V0.727272H8.34091C10.6515 0.727272 12.6364 1.19318 14.2955 2.125C15.9621 3.04924 17.2424 4.37879 18.1364 6.11364C19.0303 7.84848 19.4773 9.92424 19.4773 12.3409C19.4773 14.7652 19.0265 16.8485 18.125 18.5909C17.2311 20.3333 15.9394 21.6705 14.25 22.6023C12.5682 23.5341 10.5455 24 8.18182 24ZM4.51136 20.3523H7.97727C9.59848 20.3523 10.9508 20.0568 12.0341 19.4659C13.1174 18.8674 13.9318 17.9773 14.4773 16.7955C15.0227 15.6061 15.2955 14.1212 15.2955 12.3409C15.2955 10.5606 15.0227 9.08333 14.4773 7.90909C13.9318 6.72727 13.125 5.8447 12.0568 5.26136C10.9962 4.67045 9.67803 4.375 8.10227 4.375H4.51136V20.3523ZM28.3239 24.3523C27.2178 24.3523 26.2216 24.1553 25.3352 23.7614C24.4564 23.3598 23.7595 22.7689 23.2443 21.9886C22.7367 21.2083 22.483 20.2462 22.483 19.1023C22.483 18.1174 22.6648 17.303 23.0284 16.6591C23.392 16.0152 23.8883 15.5 24.517 15.1136C25.1458 14.7273 25.8542 14.4356 26.642 14.2386C27.4375 14.0341 28.2595 13.8864 29.108 13.7955C30.1307 13.6894 30.9602 13.5947 31.5966 13.5114C32.233 13.4205 32.6951 13.2841 32.983 13.1023C33.2784 12.9129 33.4261 12.6212 33.4261 12.2273V12.1591C33.4261 11.303 33.1723 10.6402 32.6648 10.1705C32.1572 9.70076 31.4261 9.46591 30.4716 9.46591C29.464 9.46591 28.6648 9.68561 28.0739 10.125C27.4905 10.5644 27.0966 11.0833 26.892 11.6818L23.0511 11.1364C23.3542 10.0758 23.8542 9.18939 24.5511 8.47727C25.2481 7.75757 26.1004 7.2197 27.108 6.86364C28.1155 6.5 29.2292 6.31818 30.4489 6.31818C31.2898 6.31818 32.1269 6.41667 32.9602 6.61364C33.7936 6.81061 34.5549 7.13636 35.2443 7.59091C35.9337 8.03788 36.4867 8.64773 36.9034 9.42045C37.3277 10.1932 37.5398 11.1591 37.5398 12.3182V24H33.5852V21.6023H33.4489C33.1989 22.0871 32.8466 22.5417 32.392 22.9659C31.9451 23.3826 31.3807 23.7197 30.6989 23.9773C30.0246 24.2273 29.233 24.3523 28.3239 24.3523ZM29.392 21.3295C30.2178 21.3295 30.9337 21.1667 31.5398 20.8409C32.1458 20.5076 32.6117 20.0682 32.9375 19.5227C33.2708 18.9773 33.4375 18.3826 33.4375 17.7386V15.6818C33.3087 15.7879 33.089 15.8864 32.7784 15.9773C32.4754 16.0682 32.1345 16.1477 31.7557 16.2159C31.3769 16.2841 31.0019 16.3447 30.6307 16.3977C30.2595 16.4508 29.9375 16.4962 29.6648 16.5341C29.0511 16.6174 28.5019 16.7538 28.017 16.9432C27.5322 17.1326 27.1496 17.3977 26.8693 17.7386C26.589 18.072 26.4489 18.5038 26.4489 19.0341C26.4489 19.7917 26.7254 20.3636 27.2784 20.75C27.8314 21.1364 28.536 21.3295 29.392 21.3295ZM55.4716 11.1591L51.7216 11.5682C51.6155 11.1894 51.4299 10.8333 51.1648 10.5C50.9072 10.1667 50.5587 9.89773 50.1193 9.69318C49.6799 9.48864 49.142 9.38636 48.5057 9.38636C47.6496 9.38636 46.9299 9.57197 46.3466 9.94318C45.7708 10.3144 45.4867 10.7955 45.4943 11.3864C45.4867 11.8939 45.6723 12.3068 46.0511 12.625C46.4375 12.9432 47.0739 13.2045 47.9602 13.4091L50.9375 14.0455C52.589 14.4015 53.8163 14.9659 54.6193 15.7386C55.4299 16.5114 55.839 17.5227 55.8466 18.7727C55.839 19.8712 55.517 20.8409 54.8807 21.6818C54.2519 22.5152 53.3769 23.1667 52.2557 23.6364C51.1345 24.1061 49.8466 24.3409 48.392 24.3409C46.2557 24.3409 44.536 23.8939 43.233 23C41.9299 22.0985 41.1534 20.8447 40.9034 19.2386L44.9148 18.8523C45.0966 19.6402 45.483 20.2348 46.0739 20.6364C46.6648 21.0379 47.4337 21.2386 48.3807 21.2386C49.358 21.2386 50.142 21.0379 50.733 20.6364C51.3314 20.2348 51.6307 19.7386 51.6307 19.1477C51.6307 18.6477 51.4375 18.2348 51.0511 17.9091C50.6723 17.5833 50.0814 17.3333 49.2784 17.1591L46.3011 16.5341C44.6269 16.1856 43.3883 15.5985 42.5852 14.7727C41.7822 13.9394 41.3845 12.8864 41.392 11.6136C41.3845 10.5379 41.6761 9.60606 42.267 8.81818C42.8655 8.02273 43.6951 7.40909 44.7557 6.97727C45.8239 6.53788 47.0549 6.31818 48.4489 6.31818C50.4943 6.31818 52.1042 6.75379 53.2784 7.625C54.4602 8.49621 55.1913 9.67424 55.4716 11.1591ZM63.3523 13.7727V24H59.2386V0.727272H63.2614V9.51136H63.4659C63.875 8.52651 64.5076 7.75 65.3636 7.18182C66.2273 6.60606 67.3258 6.31818 68.6591 6.31818C69.8712 6.31818 70.928 6.57197 71.8295 7.07954C72.7311 7.58712 73.428 8.32954 73.9205 9.30682C74.4205 10.2841 74.6705 11.4773 74.6705 12.8864V24H70.5568V13.5227C70.5568 12.3485 70.2538 11.4356 69.6477 10.7841C69.0492 10.125 68.2083 9.79545 67.125 9.79545C66.3977 9.79545 65.7462 9.95455 65.1705 10.2727C64.6023 10.5833 64.1553 11.0341 63.8295 11.625C63.5114 12.2159 63.3523 12.9318 63.3523 13.7727Z" fill="#FF6767"/>
<path d="M79.0455 24V0.727272H83.1591V9.43182H83.3295C83.5417 9.00758 83.8409 8.55682 84.2273 8.07955C84.6136 7.5947 85.1364 7.18182 85.7955 6.84091C86.4545 6.49242 87.2955 6.31818 88.3182 6.31818C89.6667 6.31818 90.8826 6.66288 91.9659 7.35227C93.0568 8.03409 93.9205 9.04545 94.5568 10.3864C95.2008 11.7197 95.5227 13.3561 95.5227 15.2955C95.5227 17.2121 95.2083 18.8409 94.5795 20.1818C93.9508 21.5227 93.0947 22.5455 92.0114 23.25C90.928 23.9545 89.7008 24.3068 88.3295 24.3068C87.3295 24.3068 86.5 24.1402 85.8409 23.8068C85.1818 23.4735 84.6515 23.072 84.25 22.6023C83.8561 22.125 83.5492 21.6742 83.3295 21.25H83.0909V24H79.0455ZM83.0795 15.2727C83.0795 16.4015 83.2386 17.3902 83.5568 18.2386C83.8826 19.0871 84.3485 19.75 84.9545 20.2273C85.5682 20.697 86.3106 20.9318 87.1818 20.9318C88.0909 20.9318 88.8523 20.6894 89.4659 20.2045C90.0795 19.7121 90.5417 19.0417 90.8523 18.1932C91.1705 17.3371 91.3295 16.3636 91.3295 15.2727C91.3295 14.1894 91.1742 13.2273 90.8636 12.3864C90.553 11.5455 90.0909 10.8864 89.4773 10.4091C88.8636 9.93182 88.0985 9.69318 87.1818 9.69318C86.303 9.69318 85.5568 9.92424 84.9432 10.3864C84.3295 10.8485 83.8636 11.4962 83.5455 12.3295C83.2348 13.1629 83.0795 14.1439 83.0795 15.2727ZM106.634 24.3409C104.929 24.3409 103.452 23.9659 102.202 23.2159C100.952 22.4659 99.982 21.4167 99.2926 20.0682C98.6108 18.7197 98.2699 17.1439 98.2699 15.3409C98.2699 13.5379 98.6108 11.9583 99.2926 10.6023C99.982 9.24621 100.952 8.19318 102.202 7.44318C103.452 6.69318 104.929 6.31818 106.634 6.31818C108.338 6.31818 109.815 6.69318 111.065 7.44318C112.315 8.19318 113.281 9.24621 113.963 10.6023C114.652 11.9583 114.997 13.5379 114.997 15.3409C114.997 17.1439 114.652 18.7197 113.963 20.0682C113.281 21.4167 112.315 22.4659 111.065 23.2159C109.815 23.9659 108.338 24.3409 106.634 24.3409ZM106.656 21.0455C107.58 21.0455 108.353 20.7917 108.974 20.2841C109.596 19.7689 110.058 19.0795 110.361 18.2159C110.671 17.3523 110.827 16.3902 110.827 15.3295C110.827 14.2614 110.671 13.2955 110.361 12.4318C110.058 11.5606 109.596 10.8674 108.974 10.3523C108.353 9.83712 107.58 9.57955 106.656 9.57955C105.709 9.57955 104.921 9.83712 104.293 10.3523C103.671 10.8674 103.205 11.5606 102.895 12.4318C102.592 13.2955 102.44 14.2614 102.44 15.3295C102.44 16.3902 102.592 17.3523 102.895 18.2159C103.205 19.0795 103.671 19.7689 104.293 20.2841C104.921 20.7917 105.709 21.0455 106.656 21.0455ZM123.511 24.3523C122.405 24.3523 121.409 24.1553 120.523 23.7614C119.644 23.3598 118.947 22.7689 118.432 21.9886C117.924 21.2083 117.67 20.2462 117.67 19.1023C117.67 18.1174 117.852 17.303 118.216 16.6591C118.58 16.0152 119.076 15.5 119.705 15.1136C120.333 14.7273 121.042 14.4356 121.83 14.2386C122.625 14.0341 123.447 13.8864 124.295 13.7955C125.318 13.6894 126.148 13.5947 126.784 13.5114C127.42 13.4205 127.883 13.2841 128.17 13.1023C128.466 12.9129 128.614 12.6212 128.614 12.2273V12.1591C128.614 11.303 128.36 10.6402 127.852 10.1705C127.345 9.70076 126.614 9.46591 125.659 9.46591C124.652 9.46591 123.852 9.68561 123.261 10.125C122.678 10.5644 122.284 11.0833 122.08 11.6818L118.239 11.1364C118.542 10.0758 119.042 9.18939 119.739 8.47727C120.436 7.75757 121.288 7.2197 122.295 6.86364C123.303 6.5 124.417 6.31818 125.636 6.31818C126.477 6.31818 127.314 6.41667 128.148 6.61364C128.981 6.81061 129.742 7.13636 130.432 7.59091C131.121 8.03788 131.674 8.64773 132.091 9.42045C132.515 10.1932 132.727 11.1591 132.727 12.3182V24H128.773V21.6023H128.636C128.386 22.0871 128.034 22.5417 127.58 22.9659C127.133 23.3826 126.568 23.7197 125.886 23.9773C125.212 24.2273 124.42 24.3523 123.511 24.3523ZM124.58 21.3295C125.405 21.3295 126.121 21.1667 126.727 20.8409C127.333 20.5076 127.799 20.0682 128.125 19.5227C128.458 18.9773 128.625 18.3826 128.625 17.7386V15.6818C128.496 15.7879 128.277 15.8864 127.966 15.9773C127.663 16.0682 127.322 16.1477 126.943 16.2159C126.564 16.2841 126.189 16.3447 125.818 16.3977C125.447 16.4508 125.125 16.4962 124.852 16.5341C124.239 16.6174 123.689 16.7538 123.205 16.9432C122.72 17.1326 122.337 17.3977 122.057 17.7386C121.777 18.072 121.636 18.5038 121.636 19.0341C121.636 19.7917 121.913 20.3636 122.466 20.75C123.019 21.1364 123.723 21.3295 124.58 21.3295ZM136.864 24V6.54545H140.852V9.45455H141.034C141.352 8.44697 141.898 7.67045 142.67 7.125C143.451 6.57197 144.341 6.29545 145.341 6.29545C145.568 6.29545 145.822 6.30682 146.102 6.32954C146.39 6.3447 146.629 6.37121 146.818 6.40909V10.1932C146.644 10.1326 146.367 10.0795 145.989 10.0341C145.617 9.98106 145.258 9.95455 144.909 9.95455C144.159 9.95455 143.485 10.1174 142.886 10.4432C142.295 10.7614 141.83 11.2045 141.489 11.7727C141.148 12.3409 140.977 12.9962 140.977 13.7386V24H136.864ZM155.31 24.3068C153.938 24.3068 152.711 23.9545 151.628 23.25C150.545 22.5455 149.688 21.5227 149.06 20.1818C148.431 18.8409 148.116 17.2121 148.116 15.2955C148.116 13.3561 148.435 11.7197 149.071 10.3864C149.715 9.04545 150.582 8.03409 151.673 7.35227C152.764 6.66288 153.98 6.31818 155.321 6.31818C156.344 6.31818 157.185 6.49242 157.844 6.84091C158.503 7.18182 159.026 7.5947 159.412 8.07955C159.798 8.55682 160.098 9.00758 160.31 9.43182H160.48V0.727272H164.605V24H160.56V21.25H160.31C160.098 21.6742 159.791 22.125 159.389 22.6023C158.988 23.072 158.457 23.4735 157.798 23.8068C157.139 24.1402 156.31 24.3068 155.31 24.3068ZM156.457 20.9318C157.329 20.9318 158.071 20.697 158.685 20.2273C159.298 19.75 159.764 19.0871 160.082 18.2386C160.401 17.3902 160.56 16.4015 160.56 15.2727C160.56 14.1439 160.401 13.1629 160.082 12.3295C159.772 11.4962 159.31 10.8485 158.696 10.3864C158.09 9.92424 157.344 9.69318 156.457 9.69318C155.541 9.69318 154.776 9.93182 154.162 10.4091C153.548 10.8864 153.086 11.5455 152.776 12.3864C152.465 13.2273 152.31 14.1894 152.31 15.2727C152.31 16.3636 152.465 17.3371 152.776 18.1932C153.094 19.0417 153.56 19.7121 154.173 20.2045C154.795 20.6894 155.556 20.9318 156.457 20.9318Z" fill="black"/>
</svg>
